{"title":"The Last of the Mohicans &amp; BluRay Xtras 1080p","uid":14333913,"size":5265313412,"categoryP":"video","categoryS":"hd___movies","magnet":"?xt=urn:btih:af8aba6631964e68bf829dba414364face246834&amp;dn=The+Last+of+the+Mohicans+%26amp%3B+BluRay+Xtras+1080p&amp;tr=udp%3A%2F%2Ftracker.leechers-paradise.org%3A6969&amp;tr=udp%3A%2F%2Fzer0day.ch%3A1337&amp;tr=udp%3A%2F%2Fopen.demonii.com%3A1337&amp;tr=udp%3A%2F%2Ftracker.coppersurfer.tk%3A6969&amp;tr=udp%3A%2F%2Fexodus.desync.com%3A6969","seeders":0,"leechers":0,"uploader":"AlienMethod","files":13,"time":1460693747,"description":"(Definitive Director's Cut)\r\n\r\nx264/mp4\r\n6-Channel    (audio 1)\r\n2-Channel    (audio 2)\r\nBluRay Extras Included\r\nEnglish Subs\r\n\r\n&quot;Three trappers protect a British Colonel's daughters in the \r\nmidst of the French and Indian War.&quot;\r\n\r\n\r\n\r\nVideo\r\nID : 1\r\nFormat : AVC\r\nFormat/Info : Advanced Video Codec\r\nFormat profile :   \r\nFormat settings, CABAC : Yes\r\nFormat settings, ReFrames : 4 frames\r\nCodec ID : avc1\r\nCodec ID/Info : Advanced Video Coding\r\nDuration : 1h 54mn\r\nBit rate : 4 150 Kbps\r\nMaximum bit rate : 24.4 Mbps\r\nWidth : 1 920 pixels\r\nHeight : 800 pixels\r\nDisplay aspect ratio : 2.40:1\r\nFrame rate mode : Constant\r\nFrame rate : 23.976 fps\r\nColor space : YUV\r\nChroma subsampling : 4:2:0\r\nBit depth : 8 bits\r\nScan type : Progressive\r\nBits/(Pixel*Frame) : 0.113\r\nStream size : 3.32 GiB (86%)\r\nTitle : Mohicans (Encode).h264\r\nWriting library : x264 core 142 r2479 dd79a61\r\nEncoded date : UTC 2016-04-14 14:14:08\r\nTagged date : UTC 2016-04-14 14:14:33\r\n\r\nAudio #1\r\nID : 2\r\nFormat : AC-3\r\nFormat/Info : Audio Coding 3\r\nMode extension : CM (complete main)\r\nFormat settings, Endianness : Big\r\nCodec ID : ac-3\r\nDuration : 1h 54mn\r\nBit rate mode : Constant\r\nBit rate : 448 Kbps\r\nChannel(s) : 6 channels\r\nChannel positions : Front: L C R, Side: L R, LFE\r\nSampling rate : 48.0 KHz\r\nBit depth : 16 bits\r\nCompression mode : Lossy\r\nStream size : 367 MiB (9%)\r\nTitle : Mohicans.ac3.ac3\r\nEncoded date : UTC 2016-04-14 14:14:28\r\nTagged date : UTC 2016-04-14 14:14:33\r\n\r\nAudio #2\r\nID : 3\r\nFormat : AAC\r\nFormat/Info : Advanced Audio Codec\r\nFormat profile : LC\r\nCodec ID : 40\r\nDuration : 1h 54mn\r\nBit rate mode : Variable\r\nBit rate : 227 Kbps\r\nMaximum bit rate : 260 Kbps\r\nChannel(s) : 2 channels\r\nChannel positions : Front: L R\r\nSampling rate : 48.0 KHz\r\nCompression mode : Lossy\r\nStream size : 186 MiB (5%)\r\nTitle : Mohicans.aac.m4a\r\nEncoded date : UTC 2016-04-14 14:14:31\r\nTagged date : UTC 2016-04-14 14:14:33","torrent":{"xt":"urn:btih:af8aba6631964e68bf829dba414364face246834","amp;dn":"The+Last+of+the+Mohicans+%26amp%3B+BluRay+Xtras+1080p","amp;tr":["udp%3A%2F%2Ftracker.leechers-paradise.org%3A6969","udp%3A%2F%2Fzer0day.ch%3A1337","udp%3A%2F%2Fopen.demonii.com%3A1337","udp%3A%2F%2Ftracker.coppersurfer.tk%3A6969","udp%3A%2F%2Fexodus.desync.com%3A6969"],"infoHash":"af8aba6631964e68bf829dba414364face246834","infoHashBuffer":{"type":"Buffer","data":[175,138,186,102,49,150,78,104,191,130,157,186,65,67,100,250,206,36,104,52]},"announce":[],"urlList":[]}}